HIERARCHY
ROOT Hips
{
    OFFSET 0.000000 0.000000 0.000000
    CHANNELS 6 Xposition Yposition Zposition Zrotation Xrotation Yrotation
    JOINT Spine
    {
        OFFSET -0.000000 7.236184 0.000000
        CHANNELS 3 Zrotation Xrotation Yrotation
        JOINT Spine1
        {
            OFFSET -0.000000 20.420147 0.000000
            CHANNELS 3 Zrotation Xrotation Yrotation
            JOINT Neck
            {
                OFFSET -0.000000 20.336288 1.848754
                CHANNELS 3 Zrotation Xrotation Yrotation
                JOINT Head
                {
                    OFFSET -0.000000 12.354461 -1.764923
                    CHANNELS 3 Zrotation Xrotation Yrotation
                    End Site
                    {
                        OFFSET -0.000000 22.061537 0.000000
                    }
                }
            }
            JOINT LeftShoulder
            {
                OFFSET 3.573296 18.396038 -0.314103
                CHANNELS 3 Zrotation Xrotation Yrotation
                JOINT LeftArm
                {
                    OFFSET 10.880760 0.000000 0.000000
                    CHANNELS 3 Zrotation Xrotation Yrotation
                    JOINT LeftForeArm
                    {
                        OFFSET 27.185530 0.000000 0.000000
                        CHANNELS 3 Zrotation Xrotation Yrotation
                        JOINT LeftHand
                        {
                            OFFSET 27.825975 0.000000 0.000000
                            CHANNELS 3 Zrotation Xrotation Yrotation
                            End Site
                            {
                                OFFSET 13.236923 0.000000 0.000000
                            }
                        }
                    }
                }
            }
            JOINT RightShoulder
            {
                OFFSET -3.474926 18.396038 -0.314103
                CHANNELS 3 Zrotation Xrotation Yrotation
                JOINT RightArm
                {
                    OFFSET -10.880760 0.000000 0.000000
                    CHANNELS 3 Zrotation Xrotation Yrotation
                    JOINT RightForeArm
                    {
                        OFFSET -27.185530 0.000000 0.000000
                        CHANNELS 3 Zrotation Xrotation Yrotation
                        JOINT RightHand
                        {
                            OFFSET -27.825975 0.000000 0.000000
                            CHANNELS 3 Zrotation Xrotation Yrotation
                            End Site
                            {
                                OFFSET -13.236923 0.000000 0.000000
                            }
                        }
                    }
                }
            }
        }
    }
    JOINT LeftUpLeg
    {
        OFFSET 8.824615 0.000000 0.000000
        CHANNELS 3 Zrotation Xrotation Yrotation
        JOINT LeftLeg
        {
            OFFSET -0.000000 -35.111282 0.000000
            CHANNELS 3 Zrotation Xrotation Yrotation
            JOINT LeftFoot
            {
                OFFSET -0.000000 -42.324711 0.000000
                CHANNELS 3 Zrotation Xrotation Yrotation
                JOINT LeftToeBase
                {
                    OFFSET -0.000000 -5.735999 13.236923
                    CHANNELS 3 Zrotation Xrotation Yrotation
                    End Site
                    {
                        OFFSET -0.000000 0.000000 3.529846
                    }
                }
            }
        }
    }
    JOINT RightUpLeg
    {
        OFFSET -8.824615 0.000000 0.000000
        CHANNELS 3 Zrotation Xrotation Yrotation
        JOINT RightLeg
        {
            OFFSET -0.000000 -35.111282 0.000000
            CHANNELS 3 Zrotation Xrotation Yrotation
            JOINT RightFoot
            {
                OFFSET -0.000000 -42.324711 0.000000
                CHANNELS 3 Zrotation Xrotation Yrotation
                JOINT RightToeBase
                {
                    OFFSET -0.000000 -5.735999 13.236923
                    CHANNELS 3 Zrotation Xrotation Yrotation
                    End Site
                    {
                        OFFSET -0.000000 0.000000 3.529846
                    }
                }
            }
        }
    }
}
MOTION
Frames:    4
Frame Time:    0.008333
5.900289    81.254753    106.907761    -1.784672    -11.577659    -179.701141    -3.222171    -9.856314    -0.355158    0.685283    8.092608    -0.125761    2.037966    5.034741    -3.097809    5.774815    -13.378928    -1.955747    1.526518    16.285658    -4.357756    -40.575058    44.402813    -47.590237    2.014244    -5.021663    -16.030781    18.494261    -4.466733    1.677720    2.470850    17.378778    -2.210340    42.795303    48.756718    36.470562    -6.745446    -11.228608    21.221985    -16.290283    -9.631196    -2.508413    10.895353    -16.705090    2.859953    -0.026803    14.825418    1.888780    -12.675754    -7.118260    -11.688460    0.155172    1.246103    -0.171621    -15.647378    -7.423375    -5.056605    2.956552    2.835633    -4.225636    10.823193    -3.507435    -8.520180    -0.848783    0.739789    0.917098    
5.926050    81.260834    106.934044    -1.763068    -11.643811    -179.694427    -3.201138    -9.841271    -0.350342    0.732734    8.064695    -0.126600    2.023705    5.049038    -3.097371    5.755949    -13.361746    -1.959202    1.530786    16.272858    -4.370628    -40.612854    44.311909    -47.398312    1.960616    -4.992696    -15.896620    18.475157    -4.452122    1.651656    2.486512    17.372326    -2.197010    42.807034    48.747963    36.462925    -6.729866    -11.219260    21.200014    -16.294224    -9.624559    -2.518129    10.943942    -16.775894    2.943168    -0.022932    14.795064    1.883963    -12.678090    -7.068014    -11.740070    0.146121    1.231931    -0.161615    -15.602262    -7.513590    -5.309993    2.934505    2.851272    -4.136397    10.781493    -3.425357    -8.455442    -0.865047    0.663365    0.934768    
5.951588    81.266594    106.959656    -1.741695    -11.707129    -179.683792    -3.180415    -9.825454    -0.346126    0.777828    8.037142    -0.127845    2.012357    5.063363    -3.097399    5.734847    -13.345192    -1.963988    1.535596    16.260960    -4.382537    -40.648190    44.223518    -47.215305    1.911166    -4.966408    -15.767040    18.458441    -4.438628    1.630154    2.502202    17.365877    -2.182966    42.819798    48.739193    36.452805    -6.714319    -11.212317    21.180031    -16.300327    -9.620458    -2.525582    10.990667    -16.844368    3.017346    -0.020111    14.764416    1.882715    -12.681250    -7.016852    -11.791183    0.137047    1.218083    -0.151582    -15.558573    -7.601590    -5.551393    2.913095    2.871283    -4.052242    10.759297    -3.358293    -8.394547    -0.877632    0.595514    0.948454    
5.976483    81.271835    106.983864    -1.720912    -11.765463    -179.667328    -3.160504    -9.809029    -0.343281    0.819145    8.011167    -0.129133    2.004381    5.077533    -3.098760    5.712169    -13.329961    -1.970868    1.541642    16.249992    -4.393258    -40.682243    44.138744    -47.046326    1.867833    -4.945742    -15.646604    18.443951    -4.429290    1.610723    2.517285    17.360004    -2.168844    42.832500    48.731709    36.441231    -6.699825    -11.208851    21.162922    -16.311533    -9.619699    -2.530663    11.034327    -16.908928    3.077942    -0.019299    14.734554    1.884637    -12.683502    -6.967086    -11.839139    0.127959    1.205490    -0.141534    -15.517578    -7.685026    -5.771213    2.893356    2.897276    -3.977978    10.759706    -3.311269    -8.339428    -0.884280    0.539989    0.955710    
